# xmcd
#
# Track frame offsets:
#	150
#	13085
#	29927
#	61155
#	78805
#	92352
#	119487
#	132217
#	146635
#	171727
#	191662
#	209292
#
# Disc length: 3011 seconds
#
# Revision: 1
# Processed by: cddbd v1.5.1PL0 Copyright (c) Steve Scherf et al.
# Submitted via: audiograbber 1.83.01
#
DISCID=ac0bc10c
DTITLE=The Soul Damage Club - Live
DYEAR=1994
DGENRE=Blues
TTITLE0=Harprise
TTITLE1=Don't Go No Further
TTITLE2=Stormy Monday Blues
TTITLE3=Texas Bound
TTITLE4=The Crawl
TTITLE5=She's 19 Years Old
TTITLE6=Teenie Weenie Bit
TTITLE7=Twist Of Fate
TTITLE8=Lookin' For A New Love
TTITLE9=Close To You
TTITLE10=First I Look At The Purse
TTITLE11=Homework
EXTD=
EXTT0=
EXTT1=
EXTT2=
EXTT3=
EXTT4=
EXTT5=
EXTT6=
EXTT7=
EXTT8=
EXTT9=
EXTT10=
EXTT11=
PLAYORDER=
